# xmcd
#
# Track frame offsets:
#	150
#	13751
#	31097
#	51641
#	63080
#	81198
#	97178
#	115129
#	130391
#	147641
#	157223
#	176381
#
# Disc length: 2606 seconds
#
# Revision: 1
# Processed by: cddbd v1.5.2PL0 Copyright (c) Steve Scherf et al.
# Submitted via: audiograbber 1.83.01
#
DISCID=ab0a2c0c
DTITLE=JIm LIbby - Made in the USA
DYEAR=1900
DGENRE=
TTITLE0=Try
TTITLE1=gonna stop living just to make a living
TTITLE2=Made in the USA
TTITLE3=World goes around
TTITLE4=Forever
TTITLE5=find it
TTITLE6=Love
TTITLE7=Able
TTITLE8=Please come home with me
TTITLE9=CNC
TTITLE10=Love alive
TTITLE11=run away with me
EXTD=
EXTT0=
EXTT1=
EXTT2=
EXTT3=
EXTT4=
EXTT5=
EXTT6=
EXTT7=
EXTT8=
EXTT9=
EXTT10=
EXTT11=
PLAYORDER=
